# xmcd CD database file
#
# Track frame offsets:
#	150
#	17265
#	34362
#	51476
#
# Disc length: 911 seconds
#
# Revision: 2
# Processed by: cddbd v1.5.2PL0 Copyright (c) Steve Scherf et al.
# Submitted via: CDex 1.70beta2
#
DISCID=2c038d04
DTITLE=田中ゆとり&摘込しおり&団華院れいこ(悠木碧&花澤香菜&渡辺明乃) - ゆとりのゆとり
DYEAR=2010
DGENRE=Anime
TTITLE0=ゆとりのゆとり
TTITLE1=ゆとりのじかん
TTITLE2=ゆとりのゆとり (off vocal)
TTITLE3=ゆとりのじかん (off vocal)
EXTD=YEAR: 2010
EXTT0=
EXTT1=
EXTT2=
EXTT3=
PLAYORDER=
